# xmcd
#
# Track frame offsets:
#	150
#	27900
#	43875
#	66375
#	84450
#
# Disc length: 1439 seconds
#
# Revision: 1
# Processed by: cddbd v1.5.1PL0 Copyright (c) Steve Scherf et al.
# Submitted via: CDex 1.50Beta5
#
DISCID=3f059d05
DTITLE=スネオヘアー - 冬の翼
DYEAR=1999
DGENRE=Pop
TTITLE0=冬の翼
TTITLE1=いつからだろう
TTITLE2=ハイトイウノウ
TTITLE3=東京カントリー
TTITLE4=雨上がり
EXTD=
EXTT0=
EXTT1=
EXTT2=
EXTT3=
EXTT4=
PLAYORDER=
